{"title":"CHVRCHES - 3 On Stage Session at Eurosonic 2013 1080p","uid":10754879,"size":530630419,"categoryP":"video","categoryS":"music_videos","magnet":"?xt=urn:btih:44e564ebc28627da80a7852b6ff6e1411e46115a&amp;dn=CHVRCHES+-+3+On+Stage+Session+at+Eurosonic+2013+1080p&amp;tr=udp%3A%2F%2Ftracker.openbittorrent.com%3A80&amp;tr=udp%3A%2F%2Fopen.demonii.com%3A1337&amp;tr=udp%3A%2F%2Ftracker.coppersurfer.tk%3A6969&amp;tr=udp%3A%2F%2Fexodus.desync.com%3A6969","seeders":2,"leechers":0,"uploader":"doragon69","files":3,"time":1407918640,"description":"thumbnails: &lt;a href=&quot;\nhttp://image.bayimg.com/9a32293e12fbd7ce833adb52428393bc7d775ccf.jpg&quot; rel=&quot;nofollow&quot; target=&quot;_NEW&quot;&gt;\nhttp://image.bayimg.com/9a32293e12fbd7ce833adb52428393bc7d775ccf.jpg&lt;/a&gt;\n\nSetlist:\nWe Sink\nLies\nThe Mother We Share\n\nVideo: MPEG4 Video (H264) 1888x1064 25fps 6003kbps \nAudio: AAC 44100Hz stereo 192kbps \n\nVideo\nID : 1\nFormat : AVC\nFormat/Info : Advanced Video Codec\nFormat profile : &lt;a class=&quot;__cf_email__&quot; href=&quot;/cdn-cgi/l/email-protection&quot; data-cfemail=&quot;0941606e6149453c2739&quot;&gt;[email&amp;#160;protected]&lt;/a&gt;&lt;script cf-hash='f9e31' type=&quot;text/javascript&quot;&gt;\n/* &lt;![CDATA[ */!function(){try{var t=&quot;currentScript&quot;in document?document.currentScript:function(){for(var t=document.getElementsByTagName(&quot;script&quot;),e=t.length;e--;)if(t[e].getAttribute(&quot;cf-hash&quot;))return t[e]}();if(t&amp;&amp;t.previousSibling){var e,r,n,i,c=t.previousSibling,a=c.getAttribute(&quot;data-cfemail&quot;);if(a){for(e=&quot;&quot;,r=parseInt(a.substr(0,2),16),n=2;a.length-n;n+=2)i=parseInt(a.substr(n,2),16)^r,e+=String.fromCharCode(i);e=document.createTextNode(e),c.parentNode.replaceChild(e,c)}}}catch(u){}}();/* ]]&gt; */&lt;/script&gt;\nFormat settings, CABAC : Yes\nFormat settings, ReFrames : 5 frames\nCodec ID : avc1\nCodec ID/Info : Advanced Video Coding\nDuration : 11mn 21s\nBit rate : 6 003 Kbps\nWidth : 1 888 pixels\nHeight : 1 064 pixels\nDisplay aspect ratio : 16:9\nFrame rate mode : Constant\nFrame rate : 25.000 fps\nColor space : YUV\nChroma subsampling : 4:2:0\nBit depth : 8 bits\nScan type : Progressive\nBits/(Pixel*Frame) : 0.120\nStream size : 488 MiB (97%)\nWriting library : x264 core 140 r2377M 1ca7bb9\n\nAudio\nID : 2\nFormat : AAC\nFormat/Info : Advanced Audio Codec\nFormat profile : LC\nCodec ID : 40\nDuration : 11mn 21s\nBit rate mode : Constant\nBit rate : 192 Kbps\nChannel(s) : 2 channels\nChannel positions : Front: L R\nSampling rate : 44.1 KHz\nCompression mode : Lossy\nStream size : 15.6 MiB (3%)\n\n","torrent":{"xt":"urn:btih:44e564ebc28627da80a7852b6ff6e1411e46115a","amp;dn":"CHVRCHES+-+3+On+Stage+Session+at+Eurosonic+2013+1080p","amp;tr":["udp%3A%2F%2Ftracker.openbittorrent.com%3A80","udp%3A%2F%2Fopen.demonii.com%3A1337","udp%3A%2F%2Ftracker.coppersurfer.tk%3A6969","udp%3A%2F%2Fexodus.desync.com%3A6969"],"infoHash":"44e564ebc28627da80a7852b6ff6e1411e46115a","infoHashBuffer":{"type":"Buffer","data":[68,229,100,235,194,134,39,218,128,167,133,43,111,246,225,65,30,70,17,90]},"announce":[],"urlList":[]}}